<?xml version="1.0" encoding="utf-8"?>
<!DOCTYPE svg PUBLIC "-//W3C//DTD SVG 1.1//EN" "http://www.w3.org/Graphics/SVG/1.1/DTD/svg11.dtd">
<svg version="1.1" id="Layer_1" xmlns="http://www.w3.org/2000/svg" xmlns:xlink="http://www.w3.org/1999/xlink" x="0px" y="0px"
	 width="26.979px" height="26.749px" viewBox="0 0 26.979 26.749" enable-background="new 0 0 26.979 26.749" xml:space="preserve">
<path fill="#676766" d="M22.938,13.375h-4.389v11.702H13.49V13.375h-2.438V9.546h2.438V7.059c0-3.379,1.47-5.387,5.477-5.387h4.617
	v4.142h-3.771c-1.12-0.002-1.258,0.578-1.258,1.659l-0.006,2.073h5.059L22.938,13.375z M22.483,0H4.497C2.025,0,0,2.006,0,4.459
	V22.29c0,2.454,2.024,4.459,4.497,4.459h17.986c2.474,0,4.495-2.005,4.495-4.459V4.459C26.979,2.006,24.957,0,22.483,0"/>
</svg>
