<?xml version="1.0" encoding="utf-8"?>
<!DOCTYPE svg PUBLIC "-//W3C//DTD SVG 1.1//EN" "http://www.w3.org/Graphics/SVG/1.1/DTD/svg11.dtd">
<svg version="1.1" id="Layer_1" xmlns="http://www.w3.org/2000/svg" xmlns:xlink="http://www.w3.org/1999/xlink" x="0px" y="0px"
	 width="26.978px" height="26.749px" viewBox="0 0 26.978 26.749" enable-background="new 0 0 26.978 26.749" xml:space="preserve">
<path fill="#676766" d="M19.391,17.554c-2.328,0-4.216-1.872-4.216-4.179c0-2.309,1.888-4.18,4.216-4.18
	c2.327,0,4.215,1.871,4.215,4.18C23.605,15.682,21.718,17.554,19.391,17.554 M7.587,17.554c-2.327,0-4.216-1.872-4.216-4.179
	c0-2.309,1.889-4.18,4.216-4.18s4.216,1.871,4.216,4.18C11.803,15.682,9.914,17.554,7.587,17.554 M22.482,0H4.496
	C2.022,0,0,2.006,0,4.459V22.29c0,2.454,2.022,4.459,4.496,4.459h17.986c2.473,0,4.495-2.005,4.495-4.459V4.459
	C26.978,2.007,24.955,0,22.482,0"/>
</svg>
