<?xml version="1.0" encoding="utf-8"?>
<!DOCTYPE svg PUBLIC "-//W3C//DTD SVG 1.1//EN" "http://www.w3.org/Graphics/SVG/1.1/DTD/svg11.dtd">
<svg version="1.1" id="Layer_1" xmlns="http://www.w3.org/2000/svg" xmlns:xlink="http://www.w3.org/1999/xlink" x="0px" y="0px"
	 width="26.979px" height="20.062px" viewBox="0 0 26.979 20.062" enable-background="new 0 0 26.979 20.062" xml:space="preserve">
<path fill="#D91D49" d="M0-3.344"/>
<path fill="#676766" d="M10.117,16.718V3.344l8.432,6.688L10.117,16.718z M21.92,0H5.059C2.276,0,0,2.257,0,5.016v10.03
	c0,2.759,2.276,5.016,5.059,5.016H21.92c2.782,0,5.059-2.257,5.059-5.016V5.016C26.979,2.257,24.702,0,21.92,0"/>
<path fill="#676766" d="M116.008-5.016"/>
<path fill="#676766" d="M138.945,8.359h-4.389v11.702h-5.059V8.359h-2.438V4.53h2.438V2.043c0-3.379,1.47-5.387,5.477-5.387h4.617
	v4.142h-3.771c-1.12-0.002-1.258,0.578-1.258,1.659l-0.006,2.073h5.059L138.945,8.359z M138.491-5.016h-17.986
	c-2.472,0-4.497,2.006-4.497,4.459v17.831c0,2.454,2.024,4.459,4.497,4.459h17.986c2.474,0,4.495-2.005,4.495-4.459V-0.557
	C142.986-3.01,140.965-5.016,138.491-5.016"/>
<path fill="#676766" d="M58.005-3.763"/>
<path fill="#676766" d="M84.983,1.316c-0.991,0.436-2.06,0.73-3.18,0.863c1.143-0.68,2.021-1.755,2.435-3.035
	c-1.07,0.629-2.255,1.086-3.515,1.332c-1.011-1.067-2.448-1.733-4.041-1.733c-3.056,0-5.534,2.457-5.534,5.488
	c0,0.43,0.049,0.849,0.143,1.25c-4.599-0.229-8.679-2.414-11.408-5.734c-0.477,0.812-0.75,1.753-0.75,2.759
	c0,1.904,0.978,3.584,2.464,4.568c-0.907-0.028-1.761-0.275-2.507-0.687c-0.002,0.023-0.002,0.047-0.002,0.07
	c0,2.659,1.908,4.876,4.439,5.38c-0.464,0.126-0.953,0.193-1.458,0.193c-0.356,0-0.702-0.034-1.042-0.1
	c0.704,2.181,2.749,3.768,5.171,3.812c-1.894,1.472-4.28,2.348-6.874,2.348c-0.447,0-0.887-0.024-1.32-0.075
	c2.449,1.557,5.358,2.466,8.484,2.466c10.182,0,15.748-8.363,15.748-15.615c0-0.238-0.005-0.476-0.016-0.71
	C83.303,3.382,84.24,2.416,84.983,1.316L84.983,1.316z"/>
<path fill="#676766" d="M174.013-5.016"/>
<path fill="#676766" d="M193.404,12.538c-2.328,0-4.216-1.872-4.216-4.179c0-2.309,1.888-4.18,4.216-4.18
	c2.327,0,4.215,1.871,4.215,4.18C197.619,10.666,195.731,12.538,193.404,12.538 M181.601,12.538c-2.327,0-4.216-1.872-4.216-4.179
	c0-2.309,1.889-4.18,4.216-4.18s4.216,1.871,4.216,4.18C185.816,10.666,183.928,12.538,181.601,12.538 M196.496-5.016H178.51
	c-2.474,0-4.496,2.006-4.496,4.459v17.831c0,2.454,2.022,4.459,4.496,4.459h17.986c2.473,0,4.495-2.005,4.495-4.459V-0.557
	C200.991-3.009,198.969-5.016,196.496-5.016"/>
<path fill="#676766" d="M232.017-5.016"/>
<path fill="#676766" d="M255.623,0.835c0,0.46-0.38,0.836-0.844,0.836h-1.686c-0.463,0-0.844-0.376-0.844-0.836v-1.671
	c0-0.46,0.381-0.836,0.844-0.836h1.686c0.464,0,0.844,0.376,0.844,0.836V0.835z M255.623,6.688v10.03
	c0,0.919-0.76,1.672-1.687,1.672h-16.861c-0.928,0-1.687-0.753-1.687-1.672V6.687h2.638c-0.123,0.538-0.187,1.098-0.187,1.673
	c0,4.19,3.438,7.601,7.667,7.601c4.228,0,7.665-3.409,7.665-7.601c0-0.575-0.063-1.135-0.187-1.673L255.623,6.688z M240.653,6.687
	h9.706c0.184,0.524,0.284,1.086,0.284,1.673c0,2.808-2.306,5.093-5.137,5.093c-2.833,0-5.139-2.285-5.139-5.093
	C240.368,7.772,240.469,7.211,240.653,6.687 M254.517-5.016h-18.021c-2.463,0-4.479,1.998-4.479,4.44v17.867
	c0,2.443,2.016,4.442,4.479,4.442h18.021c2.463,0,4.479-1.999,4.479-4.442V-0.575C258.996-3.018,256.979-5.016,254.517-5.016"/>
<path fill="#676766" d="M290.021-5.016"/>
<path fill="#676766" d="M304.817,12.855c-1.225-0.096-1.739-0.696-2.699-1.275c-0.528,2.748-1.175,5.382-3.087,6.757
	c-0.591-4.151,0.866-7.271,1.543-10.582c-1.153-1.925,0.14-5.8,2.571-4.845c2.994,1.174-2.592,7.158,1.158,7.906
	c3.915,0.779,5.514-6.737,3.086-9.182c-3.507-3.528-10.211-0.079-9.387,4.974c0.201,1.235,1.488,1.61,0.514,3.314
	c-2.245-0.492-2.915-2.249-2.829-4.59c0.14-3.832,3.473-6.514,6.815-6.884c4.229-0.469,8.197,1.539,8.745,5.483
	c0.617,4.45-1.909,9.271-6.432,8.925L304.817,12.855z M312.504-5.016h-17.986c-2.482,0-4.497,1.996-4.497,4.459v17.831
	c0,2.463,2.014,4.459,4.497,4.459h17.986c2.481,0,4.496-1.996,4.496-4.459V-0.557C317-3.02,314.987-5.016,312.504-5.016"/>
</svg>
