<?xml version="1.0" encoding="utf-8"?>
<!DOCTYPE svg PUBLIC "-//W3C//DTD SVG 1.1//EN" "http://www.w3.org/Graphics/SVG/1.1/DTD/svg11.dtd">
<svg version="1.1" id="Layer_1" xmlns="http://www.w3.org/2000/svg" xmlns:xlink="http://www.w3.org/1999/xlink" x="0px" y="0px"
	 width="26.979px" height="26.75px" viewBox="0 0 26.979 26.75" enable-background="new 0 0 26.979 26.75" xml:space="preserve">
<path fill="#676766" d="M23.606,5.851c0,0.46-0.38,0.836-0.844,0.836h-1.686c-0.463,0-0.844-0.376-0.844-0.836V4.18
	c0-0.46,0.381-0.836,0.844-0.836h1.686c0.464,0,0.844,0.376,0.844,0.836V5.851z M23.606,11.703v10.03
	c0,0.919-0.76,1.672-1.687,1.672H5.059c-0.928,0-1.687-0.753-1.687-1.672V11.702H6.01C5.887,12.24,5.823,12.8,5.823,13.375
	c0,4.19,3.438,7.601,7.667,7.601c4.228,0,7.665-3.409,7.665-7.601c0-0.575-0.063-1.135-0.187-1.673L23.606,11.703z M8.637,11.702
	h9.706c0.184,0.524,0.284,1.086,0.284,1.673c0,2.808-2.306,5.093-5.137,5.093c-2.833,0-5.139-2.285-5.139-5.093
	C8.352,12.788,8.452,12.227,8.637,11.702 M22.5,0H4.479C2.016,0,0,1.998,0,4.44v17.867c0,2.443,2.016,4.442,4.479,4.442H22.5
	c2.463,0,4.479-1.999,4.479-4.442V4.44C26.979,1.998,24.963,0,22.5,0"/>
</svg>
