<?xml version="1.0" encoding="utf-8"?>
<!DOCTYPE svg PUBLIC "-//W3C//DTD SVG 1.1//EN" "http://www.w3.org/Graphics/SVG/1.1/DTD/svg11.dtd">
<svg version="1.1" id="Layer_1" xmlns="http://www.w3.org/2000/svg" xmlns:xlink="http://www.w3.org/1999/xlink" x="0px" y="0px"
	 width="26.979px" height="26.749px" viewBox="0 0 26.979 26.749" enable-background="new 0 0 26.979 26.749" xml:space="preserve">
<path fill="#676766" d="M14.797,17.871c-1.225-0.096-1.739-0.696-2.699-1.275c-0.528,2.748-1.175,5.382-3.087,6.757
	c-0.591-4.151,0.866-7.271,1.543-10.582c-1.153-1.925,0.14-5.8,2.571-4.845c2.994,1.174-2.592,7.158,1.158,7.906
	c3.915,0.779,5.514-6.737,3.086-9.182c-3.507-3.528-10.211-0.079-9.387,4.974c0.201,1.235,1.488,1.61,0.514,3.314
	c-2.245-0.492-2.915-2.249-2.829-4.59c0.14-3.832,3.473-6.514,6.815-6.884c4.229-0.469,8.197,1.539,8.745,5.483
	c0.617,4.45-1.909,9.271-6.432,8.925L14.797,17.871z M22.483,0H4.497C2.015,0,0,1.996,0,4.459V22.29
	c0,2.463,2.014,4.459,4.497,4.459h17.986c2.481,0,4.496-1.996,4.496-4.459V4.459C26.979,1.996,24.967,0,22.483,0"/>
</svg>
