<?xml version="1.0" encoding="utf-8"?>
<!DOCTYPE svg PUBLIC "-//W3C//DTD SVG 1.1//EN" "http://www.w3.org/Graphics/SVG/1.1/DTD/svg11.dtd">
<svg version="1.1" id="Layer_1" xmlns="http://www.w3.org/2000/svg" xmlns:xlink="http://www.w3.org/1999/xlink" x="0px" y="0px"
	 width="26.98px" height="21.738px" viewBox="0 0 26.98 21.738" enable-background="new 0 0 26.98 21.738" xml:space="preserve">
<path fill="#676766" d="M26.98,2.573c-0.991,0.436-2.06,0.73-3.18,0.863c1.143-0.68,2.021-1.755,2.435-3.035
	c-1.07,0.629-2.255,1.086-3.515,1.332C21.709,0.666,20.272,0,18.679,0c-3.056,0-5.534,2.457-5.534,5.488
	c0,0.43,0.049,0.849,0.143,1.25C8.689,6.509,4.609,4.324,1.879,1.004c-0.477,0.812-0.75,1.753-0.75,2.759
	c0,1.904,0.978,3.584,2.464,4.568C2.686,8.303,1.833,8.056,1.086,7.645c-0.002,0.023-0.002,0.047-0.002,0.07
	c0,2.659,1.908,4.876,4.439,5.38c-0.464,0.126-0.953,0.193-1.458,0.193c-0.356,0-0.702-0.034-1.042-0.1
	C3.728,15.369,5.773,16.956,8.195,17c-1.894,1.472-4.28,2.348-6.874,2.348c-0.447,0-0.887-0.024-1.32-0.075
	c2.449,1.557,5.358,2.466,8.484,2.466c10.182,0,15.748-8.363,15.748-15.615c0-0.238-0.005-0.476-0.016-0.71
	C25.299,4.639,26.237,3.673,26.98,2.573L26.98,2.573z"/>
</svg>
